<svg width="370" height="200" viewBox="0 0 370 200" fill="none" xmlns="http://www.w3.org/2000/svg">
<mask id="mask0_147_506" style="mask-type:alpha" maskUnits="userSpaceOnUse" x="0" y="0" width="370" height="200">
<path d="M0 10C0 4.47716 4.47715 0 10 0H360C365.523 0 370 4.47715 370 10V190C370 195.523 365.523 200 360 200H9.99999C4.47715 200 0 195.523 0 190V10Z" fill="black"/>
</mask>
<g mask="url(#mask0_147_506)">
<path d="M0 10C0 4.47716 4.47715 0 10 0H360C365.523 0 370 4.47715 370 10V190C370 195.523 365.523 200 360 200H9.99999C4.47715 200 0 195.523 0 190V10Z" fill="white"/>
<path d="M369.4 82L446.855 257.683L111.455 405.555L34 229.871L369.4 82Z" fill="#0072CE"/>
<path d="M0.455299 82L-77 257.683L258.4 405.555L335.855 229.871L0.455299 82Z" fill="#0072CE"/>
<path d="M-7.00001 0H382V38H-7.00001V0Z" fill="#0072CE"/>
</g>
<path d="M138.02 188H129.797V173.723H138.02V176.203H132.824V179.338H137.658V181.818H132.824V185.5H138.02V188ZM153.674 188H149.826L143.615 177.199H143.527C143.651 179.107 143.713 180.467 143.713 181.281V188H141.008V173.723H144.826L151.027 184.416H151.096C150.998 182.561 150.949 181.249 150.949 180.48V173.723H153.674V188ZM169.123 180.725C169.123 183.075 168.452 184.875 167.111 186.125C165.777 187.375 163.846 188 161.32 188H157.277V173.723H161.76C164.09 173.723 165.9 174.338 167.189 175.568C168.479 176.799 169.123 178.518 169.123 180.725ZM165.979 180.803C165.979 177.736 164.624 176.203 161.916 176.203H160.305V185.5H161.604C164.52 185.5 165.979 183.934 165.979 180.803ZM180.51 184.035C180.51 185.324 180.044 186.34 179.113 187.082C178.189 187.824 176.9 188.195 175.246 188.195C173.723 188.195 172.375 187.909 171.203 187.336V184.523C172.167 184.953 172.98 185.256 173.645 185.432C174.315 185.607 174.927 185.695 175.48 185.695C176.145 185.695 176.652 185.568 177.004 185.314C177.362 185.061 177.541 184.683 177.541 184.182C177.541 183.902 177.463 183.654 177.307 183.439C177.15 183.218 176.919 183.007 176.613 182.805C176.314 182.603 175.699 182.281 174.768 181.838C173.895 181.428 173.241 181.034 172.805 180.656C172.368 180.279 172.02 179.839 171.76 179.338C171.499 178.837 171.369 178.251 171.369 177.58C171.369 176.317 171.796 175.324 172.648 174.602C173.508 173.879 174.693 173.518 176.203 173.518C176.945 173.518 177.652 173.605 178.322 173.781C178.999 173.957 179.706 174.204 180.441 174.523L179.465 176.877C178.703 176.564 178.072 176.346 177.57 176.223C177.076 176.099 176.587 176.037 176.105 176.037C175.533 176.037 175.093 176.171 174.787 176.438C174.481 176.704 174.328 177.053 174.328 177.482C174.328 177.749 174.39 177.984 174.514 178.186C174.637 178.381 174.833 178.573 175.1 178.762C175.373 178.944 176.014 179.276 177.023 179.758C178.358 180.396 179.273 181.037 179.768 181.682C180.262 182.32 180.51 183.104 180.51 184.035ZM194.758 188H191.74V179.738L191.77 178.381L191.818 176.896C191.317 177.398 190.969 177.727 190.773 177.883L189.133 179.201L187.678 177.385L192.277 173.723H194.758V188ZM208.703 188H198.723V185.9L202.307 182.277C203.368 181.19 204.061 180.438 204.387 180.021C204.712 179.598 204.947 179.208 205.09 178.85C205.233 178.492 205.305 178.12 205.305 177.736C205.305 177.163 205.145 176.737 204.826 176.457C204.514 176.177 204.094 176.037 203.566 176.037C203.013 176.037 202.476 176.164 201.955 176.418C201.434 176.672 200.891 177.033 200.324 177.502L198.684 175.559C199.387 174.96 199.969 174.536 200.432 174.289C200.894 174.042 201.398 173.853 201.945 173.723C202.492 173.586 203.104 173.518 203.781 173.518C204.673 173.518 205.461 173.68 206.145 174.006C206.828 174.331 207.359 174.787 207.736 175.373C208.114 175.959 208.303 176.63 208.303 177.385C208.303 178.042 208.186 178.661 207.951 179.24C207.723 179.813 207.365 180.402 206.877 181.008C206.395 181.613 205.542 182.476 204.318 183.596L202.482 185.324V185.461H208.703V188ZM217.512 173.723L212.189 188H209.484L214.807 173.723H217.512ZM228.312 180.861C228.312 183.355 227.902 185.201 227.082 186.398C226.268 187.596 225.012 188.195 223.312 188.195C221.665 188.195 220.422 187.577 219.582 186.34C218.749 185.103 218.332 183.277 218.332 180.861C218.332 178.342 218.739 176.486 219.553 175.295C220.367 174.097 221.62 173.498 223.312 173.498C224.96 173.498 226.203 174.123 227.043 175.373C227.889 176.623 228.312 178.452 228.312 180.861ZM221.33 180.861C221.33 182.613 221.48 183.869 221.779 184.631C222.085 185.386 222.596 185.764 223.312 185.764C224.016 185.764 224.523 185.38 224.836 184.611C225.148 183.843 225.305 182.593 225.305 180.861C225.305 179.11 225.145 177.854 224.826 177.092C224.514 176.324 224.009 175.939 223.312 175.939C222.603 175.939 222.095 176.324 221.789 177.092C221.483 177.854 221.33 179.11 221.33 180.861ZM239.816 188H229.836V185.9L233.42 182.277C234.481 181.19 235.174 180.438 235.5 180.021C235.826 179.598 236.06 179.208 236.203 178.85C236.346 178.492 236.418 178.12 236.418 177.736C236.418 177.163 236.258 176.737 235.939 176.457C235.627 176.177 235.207 176.037 234.68 176.037C234.126 176.037 233.589 176.164 233.068 176.418C232.548 176.672 232.004 177.033 231.438 177.502L229.797 175.559C230.5 174.96 231.083 174.536 231.545 174.289C232.007 174.042 232.512 173.853 233.059 173.723C233.605 173.586 234.217 173.518 234.895 173.518C235.786 173.518 236.574 173.68 237.258 174.006C237.941 174.331 238.472 174.787 238.85 175.373C239.227 175.959 239.416 176.63 239.416 177.385C239.416 178.042 239.299 178.661 239.064 179.24C238.837 179.813 238.479 180.402 237.99 181.008C237.508 181.613 236.656 182.476 235.432 183.596L233.596 185.324V185.461H239.816V188Z" fill="white"/>
<path d="M155.523 100.305C155.523 104.081 154.143 107.193 151.383 109.641C148.622 112.089 144.638 113.599 139.43 114.172V122.648H134.234V114.406C127.776 114.302 122.477 113.312 118.336 111.438V103.195C120.576 104.289 123.193 105.214 126.188 105.969C129.182 106.698 131.865 107.076 134.234 107.102V92.4922L130.953 91.2812C126.682 89.6406 123.557 87.6875 121.578 85.4219C119.625 83.1302 118.648 80.3047 118.648 76.9453C118.648 73.3516 120.042 70.3958 122.828 68.0781C125.641 65.7604 129.443 64.3542 134.234 63.8594V57.2969H139.43V63.7422C144.716 63.9245 149.729 64.9922 154.469 66.9453L151.617 74.0938C147.529 72.4792 143.466 71.5156 139.43 71.2031V85.4219L142.398 86.5547C147.346 88.4557 150.771 90.4609 152.672 92.5703C154.573 94.6797 155.523 97.2578 155.523 100.305ZM146.305 100.891C146.305 99.3802 145.771 98.1432 144.703 97.1797C143.661 96.1901 141.904 95.2396 139.43 94.3281V106.789C144.013 106.086 146.305 104.12 146.305 100.891ZM127.828 76.8672C127.828 78.3516 128.284 79.5885 129.195 80.5781C130.133 81.5677 131.812 82.5443 134.234 83.5078V71.3594C132.151 71.6719 130.562 72.3099 129.469 73.2734C128.375 74.237 127.828 75.4349 127.828 76.8672ZM203.531 118H162.086V107.844L176.031 93.7422C180.016 89.5755 182.62 86.737 183.844 85.2266C185.068 83.6901 185.914 82.375 186.383 81.2812C186.878 80.1875 187.125 79.0417 187.125 77.8438C187.125 76.3594 186.643 75.1875 185.68 74.3281C184.716 73.4688 183.362 73.0391 181.617 73.0391C179.82 73.0391 177.997 73.5599 176.148 74.6016C174.326 75.6172 172.255 77.1276 169.938 79.1328L161.461 69.2109C164.404 66.5807 166.878 64.7057 168.883 63.5859C170.888 62.4401 173.062 61.5677 175.406 60.9688C177.776 60.3698 180.432 60.0703 183.375 60.0703C187.073 60.0703 190.367 60.7214 193.258 62.0234C196.174 63.3255 198.427 65.1875 200.016 67.6094C201.63 70.0052 202.438 72.7005 202.438 75.6953C202.438 77.9349 202.151 80.0052 201.578 81.9062C201.031 83.8073 200.172 85.6823 199 87.5312C197.828 89.3542 196.266 91.2812 194.312 93.3125C192.385 95.3438 188.258 99.1979 181.93 104.875V105.266H203.531V118ZM250.641 89.5234C250.641 99.6276 248.948 107.036 245.562 111.75C242.177 116.438 236.995 118.781 230.016 118.781C223.193 118.781 218.049 116.333 214.586 111.438C211.122 106.516 209.391 99.2109 209.391 89.5234C209.391 79.3672 211.083 71.9193 214.469 67.1797C217.854 62.4401 223.036 60.0703 230.016 60.0703C236.812 60.0703 241.943 62.5443 245.406 67.4922C248.896 72.4141 250.641 79.7578 250.641 89.5234ZM224.742 89.5234C224.742 95.9818 225.146 100.422 225.953 102.844C226.76 105.266 228.115 106.477 230.016 106.477C231.943 106.477 233.297 105.227 234.078 102.727C234.885 100.227 235.289 95.8255 235.289 89.5234C235.289 83.1953 234.885 78.7682 234.078 76.2422C233.271 73.6901 231.917 72.4141 230.016 72.4141C228.115 72.4141 226.76 73.638 225.953 76.0859C225.146 78.5339 224.742 83.013 224.742 89.5234Z" fill="#0072CE"/>
<path d="M121.217 17.9824H126.881V25.3848C125.963 25.6842 125.097 25.8926 124.283 26.0098C123.476 26.1335 122.649 26.1953 121.803 26.1953C119.648 26.1953 118.001 25.5638 116.861 24.3008C115.729 23.0312 115.162 21.2116 115.162 18.8418C115.162 16.5371 115.82 14.7402 117.135 13.4512C118.456 12.1621 120.286 11.5176 122.623 11.5176C124.088 11.5176 125.501 11.8105 126.861 12.3965L125.855 14.8184C124.814 14.2975 123.73 14.0371 122.604 14.0371C121.295 14.0371 120.247 14.4766 119.459 15.3555C118.671 16.2344 118.277 17.416 118.277 18.9004C118.277 20.4499 118.593 21.6348 119.225 22.4551C119.863 23.2689 120.787 23.6758 121.998 23.6758C122.63 23.6758 123.271 23.6107 123.922 23.4805V20.502H121.217V17.9824ZM139.029 26L137.994 22.6016H132.789L131.754 26H128.492L133.531 11.6641H137.232L142.291 26H139.029ZM137.271 20.0625C136.314 16.9831 135.774 15.2415 135.65 14.8379C135.533 14.4342 135.449 14.1152 135.396 13.8809C135.182 14.7142 134.566 16.7747 133.551 20.0625H137.271ZM150.143 26L146.705 14.7988H146.617C146.741 17.0775 146.803 18.5977 146.803 19.3594V26H144.098V11.7227H148.219L151.598 22.6406H151.656L155.24 11.7227H159.361V26H156.539V19.2422C156.539 18.9232 156.542 18.5553 156.549 18.1387C156.562 17.722 156.607 16.6152 156.686 14.8184H156.598L152.916 26H150.143ZM171.188 26H162.965V11.7227H171.188V14.2031H165.992V17.3379H170.826V19.8184H165.992V23.5H171.188V26ZM182.604 22.0352C182.604 23.3242 182.138 24.3398 181.207 25.082C180.283 25.8242 178.993 26.1953 177.34 26.1953C175.816 26.1953 174.469 25.9089 173.297 25.3359V22.5234C174.26 22.9531 175.074 23.2559 175.738 23.4316C176.409 23.6074 177.021 23.6953 177.574 23.6953C178.238 23.6953 178.746 23.5684 179.098 23.3145C179.456 23.0605 179.635 22.6829 179.635 22.1816C179.635 21.9017 179.557 21.6543 179.4 21.4395C179.244 21.2181 179.013 21.0065 178.707 20.8047C178.408 20.6029 177.792 20.2806 176.861 19.8379C175.989 19.4277 175.335 19.0339 174.898 18.6562C174.462 18.2786 174.114 17.8392 173.854 17.3379C173.593 16.8366 173.463 16.2507 173.463 15.5801C173.463 14.3171 173.889 13.3242 174.742 12.6016C175.602 11.8789 176.786 11.5176 178.297 11.5176C179.039 11.5176 179.745 11.6055 180.416 11.7812C181.093 11.957 181.799 12.2044 182.535 12.5234L181.559 14.877C180.797 14.5645 180.165 14.3464 179.664 14.2227C179.169 14.099 178.681 14.0371 178.199 14.0371C177.626 14.0371 177.187 14.1706 176.881 14.4375C176.575 14.7044 176.422 15.0527 176.422 15.4824C176.422 15.7493 176.484 15.9837 176.607 16.1855C176.731 16.3809 176.926 16.5729 177.193 16.7617C177.467 16.944 178.108 17.276 179.117 17.7578C180.452 18.3958 181.367 19.0371 181.861 19.6816C182.356 20.3197 182.604 21.1042 182.604 22.0352ZM202.008 11.7227V20.9609C202.008 22.0156 201.77 22.9401 201.295 23.7344C200.826 24.5286 200.146 25.1374 199.254 25.5605C198.362 25.9837 197.307 26.1953 196.09 26.1953C194.254 26.1953 192.828 25.7266 191.812 24.7891C190.797 23.8451 190.289 22.556 190.289 20.9219V11.7227H193.307V20.4629C193.307 21.5632 193.528 22.3704 193.971 22.8848C194.413 23.3991 195.146 23.6562 196.168 23.6562C197.158 23.6562 197.874 23.3991 198.316 22.8848C198.766 22.3639 198.99 21.5501 198.99 20.4434V11.7227H202.008ZM218.17 26H214.322L208.111 15.1992H208.023C208.147 17.1068 208.209 18.4674 208.209 19.2812V26H205.504V11.7227H209.322L215.523 22.416H215.592C215.494 20.5605 215.445 19.2487 215.445 18.4805V11.7227H218.17V26ZM233.619 18.7246C233.619 21.0749 232.949 22.875 231.607 24.125C230.273 25.375 228.342 26 225.816 26H221.773V11.7227H226.256C228.587 11.7227 230.396 12.3379 231.686 13.5684C232.975 14.7988 233.619 16.5176 233.619 18.7246ZM230.475 18.8027C230.475 15.7363 229.12 14.2031 226.412 14.2031H224.801V23.5H226.1C229.016 23.5 230.475 21.9342 230.475 18.8027ZM244.801 26H236.578V11.7227H244.801V14.2031H239.605V17.3379H244.439V19.8184H239.605V23.5H244.801V26ZM250.816 18.0605H251.793C252.75 18.0605 253.456 17.901 253.912 17.582C254.368 17.263 254.596 16.7617 254.596 16.0781C254.596 15.401 254.361 14.9193 253.893 14.6328C253.43 14.3464 252.711 14.2031 251.734 14.2031H250.816V18.0605ZM250.816 20.5215V26H247.789V11.7227H251.949C253.889 11.7227 255.325 12.0775 256.256 12.7871C257.187 13.4902 257.652 14.5612 257.652 16C257.652 16.8398 257.421 17.5885 256.959 18.2461C256.497 18.8971 255.842 19.4082 254.996 19.7793C257.145 22.9889 258.544 25.0625 259.195 26H255.836L252.428 20.5215H250.816Z" fill="white"/>
</svg>
